# Blender v2.82 (sub 7) OBJ File: 'Portal.blend'
# www.blender.org
mtllib Portal.mtl
o Cylinder
v 0.000000 1.000000 -0.094051
v 0.000000 0.922340 0.094052
v 0.195090 0.980785 -0.094051
v 0.179940 0.904618 0.094052
v 0.382683 0.923880 -0.094051
v 0.352964 0.852131 0.094052
v 0.555570 0.831470 -0.094051
v 0.512425 0.766898 0.094052
v 0.707107 0.707107 -0.094052
v 0.652193 0.652193 0.094052
v 0.831470 0.555570 -0.094052
v 0.766898 0.512425 0.094052
v 0.923880 0.382683 -0.094052
v 0.852131 0.352964 0.094052
v 0.980785 0.195090 -0.094052
v 0.904618 0.179940 0.094052
v 1.000000 0.000000 -0.094052
v 0.922340 0.000000 0.094052
v 0.980785 -0.195090 -0.094052
v 0.904618 -0.179940 0.094052
v 0.923880 -0.382683 -0.094052
v 0.852131 -0.352964 0.094052
v 0.831470 -0.555570 -0.094052
v 0.766898 -0.512425 0.094052
v 0.707107 -0.707107 -0.094052
v 0.652193 -0.652193 0.094052
v 0.555570 -0.831470 -0.094052
v 0.512425 -0.766898 0.094052
v 0.382683 -0.923880 -0.094052
v 0.352964 -0.852132 0.094051
v 0.195090 -0.980785 -0.094052
v 0.179939 -0.904618 0.094051
v -0.000000 -1.000000 -0.094052
v -0.000000 -0.922340 0.094051
v -0.195091 -0.980785 -0.094052
v -0.179940 -0.904618 0.094051
v -0.382684 -0.923879 -0.094052
v -0.352965 -0.852131 0.094051
v -0.555571 -0.831469 -0.094052
v -0.512425 -0.766898 0.094052
v -0.707107 -0.707106 -0.094052
v -0.652194 -0.652193 0.094052
v -0.831470 -0.555570 -0.094052
v -0.766898 -0.512424 0.094052
v -0.923880 -0.382683 -0.094052
v -0.852132 -0.352964 0.094052
v -0.980785 -0.195089 -0.094052
v -0.904618 -0.179939 0.094052
v -1.000000 0.000001 -0.094052
v -0.922340 0.000001 0.094052
v -0.980785 0.195091 -0.094052
v -0.904618 0.179941 0.094052
v -0.923879 0.382684 -0.094052
v -0.852131 0.352965 0.094052
v -0.831469 0.555571 -0.094052
v -0.766897 0.512426 0.094052
v -0.707106 0.707108 -0.094052
v -0.652192 0.652194 0.094052
v -0.555569 0.831470 -0.094051
v -0.512424 0.766899 0.094052
v -0.382682 0.923880 -0.094051
v -0.352963 0.852132 0.094052
v -0.195089 0.980786 -0.094051
v -0.179938 0.904618 0.094052
v 0.000000 0.982459 -0.094051
v 0.191668 0.963581 -0.094051
v 0.375971 0.907673 -0.094051
v 0.545825 0.816885 -0.094051
v 0.694703 0.694703 -0.094052
v 0.816885 0.545825 -0.094052
v 0.907673 0.375971 -0.094052
v 0.963581 0.191668 -0.094052
v 0.982459 0.000000 -0.094052
v 0.963581 -0.191668 -0.094052
v 0.907673 -0.375970 -0.094052
v 0.816885 -0.545825 -0.094052
v 0.694703 -0.694703 -0.094052
v 0.545825 -0.816885 -0.094052
v 0.375971 -0.907674 -0.094052
v 0.191668 -0.963581 -0.094052
v -0.000000 -0.982459 -0.094052
v -0.191669 -0.963581 -0.094052
v -0.375971 -0.907673 -0.094052
v -0.545825 -0.816884 -0.094052
v -0.694704 -0.694703 -0.094052
v -0.816885 -0.545824 -0.094052
v -0.907674 -0.375970 -0.094052
v -0.963581 -0.191667 -0.094052
v -0.982459 0.000001 -0.094052
v -0.963581 0.191669 -0.094052
v -0.907673 0.375972 -0.094052
v -0.816884 0.545826 -0.094052
v -0.694702 0.694704 -0.094052
v -0.545824 0.816885 -0.094051
v -0.375969 0.907674 -0.094051
v -0.191667 0.963581 -0.094051
v 0.000000 0.909602 0.094052
v 0.177455 0.892124 0.094052
v 0.348090 0.840362 0.094052
v 0.505348 0.756306 0.094052
v 0.643186 0.643186 0.094052
v 0.756306 0.505348 0.094052
v 0.840362 0.348090 0.094052
v 0.892124 0.177455 0.094052
v 0.909602 0.000000 0.094052
v 0.892124 -0.177454 0.094052
v 0.840362 -0.348089 0.094052
v 0.756306 -0.505348 0.094052
v 0.643186 -0.643186 0.094052
v 0.505348 -0.756306 0.094052
v 0.348089 -0.840363 0.094051
v 0.177454 -0.892124 0.094051
v -0.000000 -0.909602 0.094051
v -0.177455 -0.892124 0.094051
v -0.348090 -0.840362 0.094051
v -0.505348 -0.756306 0.094052
v -0.643186 -0.643185 0.094052
v -0.756307 -0.505347 0.094052
v -0.840363 -0.348089 0.094052
v -0.892124 -0.177454 0.094052
v -0.909602 0.000001 0.094052
v -0.892124 0.177455 0.094052
v -0.840362 0.348090 0.094052
v -0.756306 0.505349 0.094052
v -0.643185 0.643186 0.094052
v -0.505347 0.756307 0.094052
v -0.348088 0.840363 0.094052
v -0.177453 0.892124 0.094052
vt 1.000000 0.500000
vt 1.000000 1.000000
vt 0.968750 1.000000
vt 0.968750 0.500000
vt 0.937500 1.000000
vt 0.937500 0.500000
vt 0.906250 1.000000
vt 0.906250 0.500000
vt 0.875000 1.000000
vt 0.875000 0.500000
vt 0.843750 1.000000
vt 0.843750 0.500000
vt 0.812500 1.000000
vt 0.812500 0.500000
vt 0.781250 1.000000
vt 0.781250 0.500000
vt 0.750000 1.000000
vt 0.750000 0.500000
vt 0.718750 1.000000
vt 0.718750 0.500000
vt 0.687500 1.000000
vt 0.687500 0.500000
vt 0.656250 1.000000
vt 0.656250 0.500000
vt 0.625000 1.000000
vt 0.625000 0.500000
vt 0.593750 1.000000
vt 0.593750 0.500000
vt 0.562500 1.000000
vt 0.562500 0.500000
vt 0.531250 1.000000
vt 0.531250 0.500000
vt 0.500000 1.000000
vt 0.500000 0.500000
vt 0.468750 1.000000
vt 0.468750 0.500000
vt 0.437500 1.000000
vt 0.437500 0.500000
vt 0.406250 1.000000
vt 0.406250 0.500000
vt 0.375000 1.000000
vt 0.375000 0.500000
vt 0.343750 1.000000
vt 0.343750 0.500000
vt 0.312500 1.000000
vt 0.312500 0.500000
vt 0.281250 1.000000
vt 0.281250 0.500000
vt 0.250000 1.000000
vt 0.250000 0.500000
vt 0.218750 1.000000
vt 0.218750 0.500000
vt 0.187500 1.000000
vt 0.187500 0.500000
vt 0.156250 1.000000
vt 0.156250 0.500000
vt 0.125000 1.000000
vt 0.125000 0.500000
vt 0.093750 1.000000
vt 0.093750 0.500000
vt 0.062500 1.000000
vt 0.062500 0.500000
vt 0.031250 1.000000
vt 0.031250 0.500000
vt 0.000000 1.000000
vt 0.000000 0.500000
vt 0.781250 0.500000
vt 0.812500 0.500000
vt 0.500000 0.500000
vt 0.531250 0.500000
vt 0.218750 0.500000
vt 0.250000 0.500000
vt 0.906250 0.500000
vt 0.937500 0.500000
vt 0.625000 0.500000
vt 0.656250 0.500000
vt 0.343750 0.500000
vt 0.375000 0.500000
vt 0.062500 0.500000
vt 0.093750 0.500000
vt 0.750000 0.500000
vt 0.468750 0.500000
vt 0.187500 0.500000
vt 0.875000 0.500000
vt 0.593750 0.500000
vt 0.312500 0.500000
vt 0.031250 0.500000
vt 0.718750 0.500000
vt 0.437500 0.500000
vt 0.156250 0.500000
vt 0.843750 0.500000
vt 0.562500 0.500000
vt 0.281250 0.500000
vt 0.968750 0.500000
vt 1.000000 0.500000
vt 0.000000 0.500000
vt 0.687500 0.500000
vt 0.406250 0.500000
vt 0.125000 0.500000
vt 0.687500 1.000000
vt 0.656250 1.000000
vt 0.406250 1.000000
vt 0.375000 1.000000
vt 0.125000 1.000000
vt 0.093750 1.000000
vt 0.812500 1.000000
vt 0.781250 1.000000
vt 0.531250 1.000000
vt 0.500000 1.000000
vt 0.250000 1.000000
vt 0.218750 1.000000
vt 0.937500 1.000000
vt 0.906250 1.000000
vt 0.625000 1.000000
vt 0.343750 1.000000
vt 0.062500 1.000000
vt 0.750000 1.000000
vt 0.468750 1.000000
vt 0.187500 1.000000
vt 0.875000 1.000000
vt 0.593750 1.000000
vt 0.312500 1.000000
vt 0.031250 1.000000
vt 0.718750 1.000000
vt 0.437500 1.000000
vt 0.156250 1.000000
vt 0.843750 1.000000
vt 0.562500 1.000000
vt 0.281250 1.000000
vt 1.000000 1.000000
vt 0.968750 1.000000
vt 0.000000 1.000000
vn 0.0907 0.9205 0.3800
vn 0.2685 0.8851 0.3800
vn 0.4360 0.8158 0.3800
vn 0.5868 0.7150 0.3800
vn 0.7150 0.5868 0.3800
vn 0.8158 0.4360 0.3800
vn 0.8851 0.2685 0.3800
vn 0.9205 0.0907 0.3800
vn 0.9205 -0.0907 0.3800
vn 0.8851 -0.2685 0.3800
vn 0.8158 -0.4360 0.3800
vn 0.7150 -0.5868 0.3800
vn 0.5868 -0.7150 0.3800
vn 0.4360 -0.8158 0.3800
vn 0.2685 -0.8851 0.3800
vn 0.0907 -0.9205 0.3800
vn -0.0907 -0.9205 0.3800
vn -0.2685 -0.8851 0.3800
vn -0.4360 -0.8158 0.3800
vn -0.5868 -0.7150 0.3800
vn -0.7150 -0.5868 0.3800
vn -0.8158 -0.4360 0.3800
vn -0.8851 -0.2685 0.3800
vn -0.9205 -0.0907 0.3800
vn -0.9205 0.0907 0.3800
vn -0.8851 0.2685 0.3800
vn -0.8157 0.4360 0.3800
vn -0.7150 0.5868 0.3800
vn -0.5868 0.7150 0.3800
vn -0.4360 0.8158 0.3800
vn -0.2685 0.8851 0.3800
vn -0.0907 0.9205 0.3800
vn 0.0000 0.0000 -1.0000
vn 0.0000 -0.0000 1.0000
vn 0.0915 -0.9286 -0.3597
vn 0.2709 -0.8929 -0.3597
vn 0.4399 -0.8229 -0.3597
vn 0.5919 -0.7213 -0.3597
vn 0.7213 -0.5919 -0.3597
vn 0.8229 -0.4399 -0.3597
vn 0.8929 -0.2709 -0.3597
vn 0.9286 -0.0915 -0.3597
vn 0.9286 0.0915 -0.3597
vn 0.8929 0.2709 -0.3597
vn 0.8229 0.4399 -0.3597
vn 0.7213 0.5919 -0.3597
vn 0.5919 0.7213 -0.3597
vn 0.4399 0.8229 -0.3597
vn 0.2709 0.8929 -0.3597
vn 0.0915 0.9286 -0.3597
vn -0.0915 0.9286 -0.3597
vn -0.2709 0.8929 -0.3597
vn -0.4399 0.8229 -0.3597
vn -0.5919 0.7213 -0.3597
vn -0.7213 0.5919 -0.3597
vn -0.8229 0.4399 -0.3597
vn -0.8929 0.2709 -0.3597
vn -0.9286 0.0915 -0.3597
vn -0.9286 -0.0915 -0.3597
vn -0.8929 -0.2709 -0.3597
vn -0.8229 -0.4399 -0.3597
vn -0.7213 -0.5919 -0.3597
vn -0.5919 -0.7213 -0.3597
vn -0.4399 -0.8229 -0.3597
vn -0.2709 -0.8929 -0.3597
vn -0.0915 -0.9286 -0.3597
usemtl None
s off
f 1/1/1 2/2/1 4/3/1 3/4/1
f 3/4/2 4/3/2 6/5/2 5/6/2
f 5/6/3 6/5/3 8/7/3 7/8/3
f 7/8/4 8/7/4 10/9/4 9/10/4
f 9/10/5 10/9/5 12/11/5 11/12/5
f 11/12/6 12/11/6 14/13/6 13/14/6
f 13/14/7 14/13/7 16/15/7 15/16/7
f 15/16/8 16/15/8 18/17/8 17/18/8
f 17/18/9 18/17/9 20/19/9 19/20/9
f 19/20/10 20/19/10 22/21/10 21/22/10
f 21/22/11 22/21/11 24/23/11 23/24/11
f 23/24/12 24/23/12 26/25/12 25/26/12
f 25/26/13 26/25/13 28/27/13 27/28/13
f 27/28/14 28/27/14 30/29/14 29/30/14
f 29/30/15 30/29/15 32/31/15 31/32/15
f 31/32/16 32/31/16 34/33/16 33/34/16
f 33/34/17 34/33/17 36/35/17 35/36/17
f 35/36/18 36/35/18 38/37/18 37/38/18
f 37/38/19 38/37/19 40/39/19 39/40/19
f 39/40/20 40/39/20 42/41/20 41/42/20
f 41/42/21 42/41/21 44/43/21 43/44/21
f 43/44/22 44/43/22 46/45/22 45/46/22
f 45/46/23 46/45/23 48/47/23 47/48/23
f 47/48/24 48/47/24 50/49/24 49/50/24
f 49/50/25 50/49/25 52/51/25 51/52/25
f 51/52/26 52/51/26 54/53/26 53/54/26
f 53/54/27 54/53/27 56/55/27 55/56/27
f 55/56/28 56/55/28 58/57/28 57/58/28
f 57/58/29 58/57/29 60/59/29 59/60/29
f 59/60/30 60/59/30 62/61/30 61/62/30
f 61/62/31 62/61/31 64/63/31 63/64/31
f 63/64/32 64/63/32 2/65/32 1/66/32
f 13/14/33 15/16/33 72/67/33 71/68/33
f 31/32/33 33/34/33 81/69/33 80/70/33
f 49/50/33 51/52/33 90/71/33 89/72/33
f 5/6/33 7/8/33 68/73/33 67/74/33
f 23/24/33 25/26/33 77/75/33 76/76/33
f 41/42/33 43/44/33 86/77/33 85/78/33
f 59/60/33 61/62/33 95/79/33 94/80/33
f 15/16/33 17/18/33 73/81/33 72/67/33
f 33/34/33 35/36/33 82/82/33 81/69/33
f 51/52/33 53/54/33 91/83/33 90/71/33
f 7/8/33 9/10/33 69/84/33 68/73/33
f 25/26/33 27/28/33 78/85/33 77/75/33
f 43/44/33 45/46/33 87/86/33 86/77/33
f 61/62/33 63/64/33 96/87/33 95/79/33
f 17/18/33 19/20/33 74/88/33 73/81/33
f 35/36/33 37/38/33 83/89/33 82/82/33
f 53/54/33 55/56/33 92/90/33 91/83/33
f 9/10/33 11/12/33 70/91/33 69/84/33
f 27/28/33 29/30/33 79/92/33 78/85/33
f 45/46/33 47/48/33 88/93/33 87/86/33
f 1/1/33 3/4/33 66/94/33 65/95/33
f 63/64/33 1/66/33 65/96/33 96/87/33
f 19/20/33 21/22/33 75/97/33 74/88/33
f 37/38/33 39/40/33 84/98/33 83/89/33
f 55/56/33 57/58/33 93/99/33 92/90/33
f 11/12/33 13/14/33 71/68/33 70/91/33
f 29/30/33 31/32/33 80/70/33 79/92/33
f 47/48/33 49/50/33 89/72/33 88/93/33
f 3/4/33 5/6/33 67/74/33 66/94/33
f 21/22/33 23/24/33 76/76/33 75/97/33
f 39/40/33 41/42/33 85/78/33 84/98/33
f 57/58/33 59/60/33 94/80/33 93/99/33
f 24/23/34 22/21/34 107/100/34 108/101/34
f 42/41/34 40/39/34 116/102/34 117/103/34
f 60/59/34 58/57/34 125/104/34 126/105/34
f 16/15/34 14/13/34 103/106/34 104/107/34
f 34/33/34 32/31/34 112/108/34 113/109/34
f 52/51/34 50/49/34 121/110/34 122/111/34
f 8/7/34 6/5/34 99/112/34 100/113/34
f 26/25/34 24/23/34 108/101/34 109/114/34
f 44/43/34 42/41/34 117/103/34 118/115/34
f 62/61/34 60/59/34 126/105/34 127/116/34
f 18/17/34 16/15/34 104/107/34 105/117/34
f 36/35/34 34/33/34 113/109/34 114/118/34
f 54/53/34 52/51/34 122/111/34 123/119/34
f 10/9/34 8/7/34 100/113/34 101/120/34
f 28/27/34 26/25/34 109/114/34 110/121/34
f 46/45/34 44/43/34 118/115/34 119/122/34
f 64/63/34 62/61/34 127/116/34 128/123/34
f 20/19/34 18/17/34 105/117/34 106/124/34
f 38/37/34 36/35/34 114/118/34 115/125/34
f 56/55/34 54/53/34 123/119/34 124/126/34
f 12/11/34 10/9/34 101/120/34 102/127/34
f 30/29/34 28/27/34 110/121/34 111/128/34
f 48/47/34 46/45/34 119/122/34 120/129/34
f 4/3/34 2/2/34 97/130/34 98/131/34
f 2/65/34 64/63/34 128/123/34 97/132/34
f 22/21/34 20/19/34 106/124/34 107/100/34
f 40/39/34 38/37/34 115/125/34 116/102/34
f 58/57/34 56/55/34 124/126/34 125/104/34
f 14/13/34 12/11/34 102/127/34 103/106/34
f 32/31/34 30/29/34 111/128/34 112/108/34
f 50/49/34 48/47/34 120/129/34 121/110/34
f 6/5/34 4/3/34 98/131/34 99/112/34
f 97/132/35 128/123/35 96/87/35 65/96/35
f 128/123/36 127/116/36 95/79/36 96/87/36
f 127/116/37 126/105/37 94/80/37 95/79/37
f 126/105/38 125/104/38 93/99/38 94/80/38
f 125/104/39 124/126/39 92/90/39 93/99/39
f 124/126/40 123/119/40 91/83/40 92/90/40
f 123/119/41 122/111/41 90/71/41 91/83/41
f 122/111/42 121/110/42 89/72/42 90/71/42
f 121/110/43 120/129/43 88/93/43 89/72/43
f 120/129/44 119/122/44 87/86/44 88/93/44
f 119/122/45 118/115/45 86/77/45 87/86/45
f 118/115/46 117/103/46 85/78/46 86/77/46
f 117/103/47 116/102/47 84/98/47 85/78/47
f 116/102/48 115/125/48 83/89/48 84/98/48
f 115/125/49 114/118/49 82/82/49 83/89/49
f 114/118/50 113/109/50 81/69/50 82/82/50
f 113/109/51 112/108/51 80/70/51 81/69/51
f 112/108/52 111/128/52 79/92/52 80/70/52
f 111/128/53 110/121/53 78/85/53 79/92/53
f 110/121/54 109/114/54 77/75/54 78/85/54
f 109/114/55 108/101/55 76/76/55 77/75/55
f 108/101/56 107/100/56 75/97/56 76/76/56
f 107/100/57 106/124/57 74/88/57 75/97/57
f 106/124/58 105/117/58 73/81/58 74/88/58
f 105/117/59 104/107/59 72/67/59 73/81/59
f 104/107/60 103/106/60 71/68/60 72/67/60
f 103/106/61 102/127/61 70/91/61 71/68/61
f 102/127/62 101/120/62 69/84/62 70/91/62
f 101/120/63 100/113/63 68/73/63 69/84/63
f 100/113/64 99/112/64 67/74/64 68/73/64
f 99/112/65 98/131/65 66/94/65 67/74/65
f 98/131/66 97/130/66 65/95/66 66/94/66
